<svg width="34" height="23" viewBox="0 0 34 23" fill="none" xmlns="http://www.w3.org/2000/svg">
<path d="M20.8896 9C20.8896 11.3081 19.6061 13.4441 18.2576 15.0414C17.5896 15.8327 16.9203 16.4743 16.418 16.918C16.2079 17.1036 16.0276 17.254 15.8897 17.3656C15.7517 17.254 15.5714 17.1036 15.3613 16.918C14.859 16.4743 14.1897 15.8327 13.5217 15.0414C12.1732 13.4441 10.8896 11.3081 10.8896 9C10.8896 6.69191 12.1732 4.55589 13.5217 2.95858C14.1897 2.16732 14.859 1.52568 15.3613 1.08202C15.5714 0.896438 15.7517 0.746034 15.8896 0.634354C16.0276 0.746034 16.2079 0.896438 16.418 1.08202C16.9203 1.52568 17.5896 2.16732 18.2576 2.95858C19.6061 4.55589 20.8896 6.69191 20.8896 9Z" stroke="white"/>
<path d="M13.7698 8.75694C15.4448 10.4319 16.0984 12.8714 16.3177 14.9582C16.4264 15.993 16.4261 16.9203 16.3986 17.5887C16.3874 17.8586 16.3719 18.0856 16.3574 18.2595C16.1835 18.274 15.9565 18.2896 15.6866 18.3007C15.0182 18.3283 14.0909 18.3285 13.0561 18.2198C10.9693 18.0005 8.52973 17.3469 6.8548 15.672C5.17986 13.997 4.52623 11.5575 4.30697 9.47068C4.19824 8.4359 4.1985 7.5086 4.22607 6.84021C4.2372 6.57029 4.25276 6.34332 4.26725 6.1694C4.44117 6.15491 4.66814 6.13935 4.93806 6.12821C5.60645 6.10064 6.53375 6.10039 7.56853 6.20911C9.65534 6.42838 12.0949 7.08201 13.7698 8.75694Z" stroke="white"/>
<path d="M19.5364 8.75694C17.8614 10.4319 17.2078 12.8714 16.9886 14.9582C16.8798 15.993 16.8801 16.9203 16.9077 17.5887C16.9188 17.8586 16.9343 18.0856 16.9488 18.2595C17.1228 18.274 17.3497 18.2896 17.6196 18.3007C18.288 18.3283 19.2153 18.3285 20.2501 18.2198C22.3369 18.0005 24.7765 17.3469 26.4514 15.672C28.1264 13.997 28.78 11.5575 28.9992 9.47068C29.108 8.4359 29.1077 7.5086 29.0801 6.84021C29.069 6.57029 29.0535 6.34332 29.039 6.1694C28.865 6.15491 28.6381 6.13935 28.3682 6.12821C27.6998 6.10064 26.7725 6.10039 25.7377 6.20911C23.6509 6.42838 21.2113 7.08201 19.5364 8.75694Z" stroke="white"/>
</svg>
