<svg width="328" height="103" viewBox="0 0 328 103" fill="none" xmlns="http://www.w3.org/2000/svg">
<path d="M1.45508 98V83.9082H6.97266C8.18359 83.9082 9.16016 84.2305 9.90234 84.875C10.6445 85.5195 11.0156 86.3691 11.0156 87.4238C11.0156 88.1595 10.7812 88.8236 10.3125 89.416C9.83724 90.015 9.26107 90.3763 8.58398 90.5V90.5781C9.54102 90.7018 10.306 91.0762 10.8789 91.7012C11.4453 92.3262 11.7285 93.1074 11.7285 94.0449C11.7285 95.2884 11.3086 96.2585 10.4688 96.9551C9.6224 97.6517 8.45052 98 6.95312 98H1.45508ZM3.21289 89.9824H6.02539C7.06706 89.9824 7.86133 89.7806 8.4082 89.377C8.96159 88.9733 9.23828 88.3906 9.23828 87.6289C9.23828 86.9323 9.00716 86.3952 8.54492 86.0176C8.08268 85.6465 7.42513 85.4609 6.57227 85.4609H3.21289V89.9824ZM6.68945 96.4473C8.8444 96.4473 9.92188 95.6172 9.92188 93.957C9.92188 92.3164 8.78906 91.4961 6.52344 91.4961H3.21289V96.4473H6.68945ZM23.8465 98H15.116V83.9082H23.8465V85.4902H16.8738V90.0117H23.4852V91.5742H16.8738V96.418H23.8465V98ZM33.3668 98.2344C31.4202 98.2344 29.8772 97.5768 28.7379 96.2617C27.5921 94.9531 27.0191 93.1823 27.0191 90.9492C27.0191 88.7357 27.5953 86.9714 28.7477 85.6562C29.9 84.3346 31.4397 83.6738 33.3668 83.6738C34.8642 83.6738 36.1435 84.084 37.2047 84.9043C38.2594 85.7181 38.9169 86.8021 39.1773 88.1562H37.3805C37.1266 87.2839 36.635 86.5905 35.9059 86.0762C35.1767 85.5553 34.3303 85.2949 33.3668 85.2949C31.9931 85.2949 30.8928 85.8092 30.066 86.8379C29.2392 87.8665 28.8258 89.237 28.8258 90.9492C28.8258 92.681 29.2359 94.0579 30.0562 95.0801C30.8766 96.1022 31.9833 96.6133 33.3766 96.6133C34.3727 96.6133 35.2223 96.3919 35.9254 95.9492C36.6155 95.5065 37.1005 94.8815 37.3805 94.0742H39.1773C38.8323 95.4154 38.1585 96.444 37.1559 97.1602C36.1533 97.8763 34.8902 98.2344 33.3668 98.2344ZM52.1449 98V91.584H44.4105V98H42.6527V83.9082H44.4105V90.002H52.1449V83.9082H53.9027V98H52.1449ZM65.7766 93.9668H60.1711L58.7551 98H56.9094L62.1047 83.9082H63.843L69.0383 98H67.1926L65.7766 93.9668ZM60.6887 92.4727H65.259L63.0031 86.0469H62.9445L60.6887 92.4727ZM78.0301 98V83.9082H83.5477C84.7586 83.9082 85.7352 84.2305 86.4773 84.875C87.2195 85.5195 87.5906 86.3691 87.5906 87.4238C87.5906 88.1595 87.3562 88.8236 86.8875 89.416C86.4122 90.015 85.8361 90.3763 85.159 90.5V90.5781C86.116 90.7018 86.881 91.0762 87.4539 91.7012C88.0203 92.3262 88.3035 93.1074 88.3035 94.0449C88.3035 95.2884 87.8836 96.2585 87.0437 96.9551C86.1974 97.6517 85.0255 98 83.5281 98H78.0301ZM79.7879 89.9824H82.6004C83.6421 89.9824 84.4363 89.7806 84.9832 89.377C85.5366 88.9733 85.8133 88.3906 85.8133 87.6289C85.8133 86.9323 85.5822 86.3952 85.1199 86.0176C84.6577 85.6465 84.0001 85.4609 83.1473 85.4609H79.7879V89.9824ZM83.2645 96.4473C85.4194 96.4473 86.4969 95.6172 86.4969 93.957C86.4969 92.3164 85.3641 91.4961 83.0984 91.4961H79.7879V96.4473H83.2645ZM97.4918 98.2344C95.5452 98.2344 94.0022 97.5768 92.8629 96.2617C91.7171 94.9531 91.1441 93.1823 91.1441 90.9492C91.1441 88.7357 91.7203 86.9714 92.8727 85.6562C94.025 84.3346 95.5647 83.6738 97.4918 83.6738C98.9892 83.6738 100.268 84.084 101.33 84.9043C102.384 85.7181 103.042 86.8021 103.302 88.1562H101.505C101.252 87.2839 100.76 86.5905 100.031 86.0762C99.3017 85.5553 98.4553 85.2949 97.4918 85.2949C96.1181 85.2949 95.0178 85.8092 94.191 86.8379C93.3642 87.8665 92.9508 89.237 92.9508 90.9492C92.9508 92.681 93.3609 94.0579 94.1813 95.0801C95.0016 96.1022 96.1083 96.6133 97.5016 96.6133C98.4977 96.6133 99.3473 96.3919 100.05 95.9492C100.74 95.5065 101.226 94.8815 101.505 94.0742H103.302C102.957 95.4154 102.283 96.444 101.281 97.1602C100.278 97.8763 99.0152 98.2344 97.4918 98.2344ZM115.508 98H106.778V83.9082H115.508V85.4902H108.536V90.0117H115.147V91.5742H108.536V96.418H115.508V98ZM119.228 98V83.9082H127.587V85.5098H120.995V98H119.228ZM133.152 92.8145C133.048 94.4941 132.719 95.6693 132.166 96.3398V96.418H139.002V85.4902H133.611L133.152 92.8145ZM130.574 100.783H128.943V96.418H129.988C130.887 95.9427 131.391 94.7285 131.502 92.7754L132.039 83.9082H140.76V96.418H142.518V100.783H140.887V98H130.574V100.783ZM153.512 93.9668H147.907L146.491 98H144.645L149.841 83.9082H151.579L156.774 98H154.929L153.512 93.9668ZM148.425 92.4727H152.995L150.739 86.0469H150.68L148.425 92.4727Z" fill="white"/>
<path d="M82.8896 63C82.8896 65.3081 81.6061 67.4441 80.2576 69.0414C79.5896 69.8327 78.9203 70.4743 78.418 70.918C78.2079 71.1036 78.0276 71.254 77.8897 71.3656C77.7517 71.254 77.5714 71.1036 77.3613 70.918C76.859 70.4743 76.1897 69.8327 75.5217 69.0414C74.1732 67.4441 72.8896 65.3081 72.8896 63C72.8896 60.6919 74.1732 58.5559 75.5217 56.9586C76.1897 56.1673 76.859 55.5257 77.3613 55.082C77.5714 54.8964 77.7517 54.746 77.8896 54.6344C78.0276 54.746 78.2079 54.8964 78.418 55.082C78.9203 55.5257 79.5896 56.1673 80.2576 56.9586C81.6061 58.5559 82.8896 60.6919 82.8896 63Z" stroke="white"/>
<path d="M75.7698 62.7569C77.4448 64.4319 78.0984 66.8714 78.3177 68.9582C78.4264 69.993 78.4261 70.9203 78.3986 71.5887C78.3874 71.8586 78.3719 72.0856 78.3574 72.2595C78.1835 72.274 77.9565 72.2896 77.6866 72.3007C77.0182 72.3283 76.0909 72.3285 75.0561 72.2198C72.9693 72.0005 70.5297 71.3469 68.8548 69.672C67.1799 67.997 66.5262 65.5575 66.307 63.4707C66.1982 62.4359 66.1985 61.5086 66.2261 60.8402C66.2372 60.5703 66.2528 60.3433 66.2672 60.1694C66.4412 60.1549 66.6681 60.1393 66.9381 60.1282C67.6065 60.1006 68.5337 60.1004 69.5685 60.2091C71.6553 60.4284 74.0949 61.082 75.7698 62.7569Z" stroke="white"/>
<path d="M81.5364 62.7569C79.8614 64.4319 79.2078 66.8714 78.9886 68.9582C78.8798 69.993 78.8801 70.9203 78.9077 71.5887C78.9188 71.8586 78.9343 72.0856 78.9488 72.2595C79.1228 72.274 79.3497 72.2896 79.6196 72.3007C80.288 72.3283 81.2153 72.3285 82.2501 72.2198C84.3369 72.0005 86.7765 71.3469 88.4514 69.672C90.1264 67.997 90.78 65.5575 90.9992 63.4707C91.108 62.4359 91.1077 61.5086 91.0801 60.8402C91.069 60.5703 91.0535 60.3433 91.039 60.1694C90.865 60.1549 90.6381 60.1393 90.3682 60.1282C89.6998 60.1006 88.7725 60.1004 87.7377 60.2091C85.6509 60.4284 83.2113 61.082 81.5364 62.7569Z" stroke="white"/>
<path d="M53.5 66H1.5" stroke="white"/>
<path d="M155 66L103 66" stroke="white"/>
</svg>
